<svg width="25" height="26" viewBox="0 0 25 26" fill="none" xmlns="http://www.w3.org/2000/svg">
<g clip-path="url(#clip0_1_336)">
<path d="M21.4518 19.8375C20.8472 18.932 19.9289 18.4313 19.0659 18.1059C18.6335 17.9432 18.2101 17.8232 17.8375 17.721C17.4655 17.6199 17.1419 17.5346 16.9246 17.4527C16.5442 17.3113 16.1426 17.1286 15.8623 16.9317C15.7224 16.834 15.6144 16.7333 15.5518 16.6475C15.4886 16.5601 15.4715 16.4995 15.4708 16.4464C15.4708 16.1437 15.4708 15.7809 15.4708 15.3243C16.0594 15.9579 17.2809 17.0076 18.6701 16.6454C17.7775 15.7914 17.8801 12.7036 17.8711 11.3765C18.034 11.0574 18.181 10.6554 18.3369 10.1102C18.4192 9.82191 18.4572 9.57108 18.4572 9.34749C18.4576 9.09032 18.4047 8.86673 18.3075 8.68548C18.2737 8.62181 18.234 8.56585 18.1922 8.51512C19.0391 7.29574 18.5582 0.276645 13.7268 0.224887C8.92632 -0.396109 5.93272 1.69339 6.75181 8.55506C6.75879 8.56136 6.76548 8.56976 6.77227 8.57606C6.74585 8.61317 6.71543 8.64359 6.69283 8.68553C6.59561 8.86678 6.54239 9.09037 6.54273 9.34754C6.54292 9.57113 6.58101 9.82196 6.66343 10.1103C6.81895 10.6526 6.96416 11.0557 7.12705 11.3741C7.11812 12.6998 7.22134 15.7914 6.32828 16.6455C7.71905 17.008 8.94156 15.9558 9.52954 15.3219C9.52954 15.7795 9.52954 16.1431 9.52954 16.4464C9.52954 16.4915 9.51167 16.5563 9.4419 16.649C9.33955 16.7865 9.12749 16.9534 8.87559 17.0948C8.62442 17.2379 8.33555 17.3614 8.08272 17.4506C7.78584 17.5556 7.30772 17.6654 6.77188 17.8186C5.9668 18.0517 5.01509 18.3869 4.24082 19.0509C3.8542 19.383 3.5148 19.8 3.27618 20.3182C3.03721 20.836 2.9002 21.4515 2.90059 22.1716C2.90059 22.3388 2.90791 22.5113 2.92315 22.6901C2.93399 22.8157 2.98155 22.9172 3.03755 23.0008C3.1441 23.1579 3.28545 23.2741 3.4625 23.3934C3.77251 23.5985 4.20215 23.7993 4.75201 23.9959C6.39805 24.583 9.12315 25.1204 12.5001 25.1211C15.2437 25.1211 17.5596 24.765 19.2125 24.3178C20.0394 24.0935 20.6997 23.8483 21.1767 23.603C21.4157 23.4795 21.609 23.3574 21.7621 23.2237C21.8389 23.1562 21.9061 23.0852 21.9627 23.0009C22.0184 22.9172 22.0663 22.8158 22.0772 22.6901C22.092 22.512 22.0994 22.3395 22.0994 22.173C22.1008 21.2129 21.8541 20.4393 21.4518 19.8375ZM6.01021 23.6051C6.00162 23.603 5.99126 23.6006 5.98272 23.5981C5.19322 23.3847 4.57198 23.1502 4.1647 22.94C3.96177 22.8357 3.81216 22.7367 3.72945 22.6636C3.6941 22.6328 3.67417 22.6094 3.66436 22.5957C3.65284 22.4487 3.6462 22.3067 3.6462 22.1716C3.64742 21.335 3.85191 20.7241 4.16807 20.2448C4.62012 19.5604 5.33389 19.1314 6.08819 18.834C6.12076 18.9894 6.15083 19.1633 6.17535 19.3578C6.23135 19.7966 6.26475 20.3245 6.26475 20.8998C6.26475 21.7437 6.18658 22.6884 6.01021 23.6051ZM17.5322 8.91507C17.5348 8.91683 17.5381 8.91786 17.5407 8.91927C17.5834 8.94691 17.6181 8.97874 17.6499 9.03719C17.6814 9.09598 17.7114 9.18866 17.7122 9.34754C17.7122 9.4847 17.6878 9.66913 17.6202 9.90594C17.4146 10.6299 17.2302 11.0508 17.0612 11.2845C16.9765 11.4027 16.899 11.4766 16.8129 11.5368C16.732 11.5927 16.6376 11.6375 16.5194 11.6812C16.6964 10.9032 17.0724 9.46302 17.5322 8.91507ZM8.5023 11.69C8.37266 11.6438 8.27364 11.5966 8.18741 11.5368C8.05987 11.4465 7.94444 11.3241 7.80933 11.0725C7.67603 10.8223 7.53467 10.4483 7.38023 9.90594C7.31236 9.66908 7.28824 9.48465 7.28824 9.34754C7.28824 9.29754 7.29224 9.25555 7.29746 9.21776C7.82442 9.99657 8.29659 11.0627 8.56128 11.7114L8.5023 11.69ZM12.5001 21.7878L8.65464 18.0279C8.95205 17.9047 9.26314 17.7494 9.5378 17.5587C9.72603 17.4271 9.89854 17.2795 10.0355 17.0996C10.171 16.9222 10.2749 16.7004 10.2749 16.4464C10.2749 16.051 10.2749 15.557 10.2749 14.8792V14.7361L10.1792 14.6298C9.69737 14.0934 9.05899 13.3842 8.7896 12.175L8.98291 7.793L9.88667 6.21151C9.88667 6.21151 12.9365 9.3745 15.9861 9.14842L16.3465 11.7443L16.2938 11.7632L16.2565 11.9766C16.0179 13.3125 15.3295 14.0637 14.8213 14.6298L14.7256 14.7362V14.8793C14.7256 15.557 14.7256 16.0511 14.7256 16.4464C14.7249 16.6924 14.8206 16.9132 14.9513 17.0895C15.1498 17.3554 15.4252 17.5524 15.7251 17.7245C15.9259 17.8386 16.1386 17.9345 16.3504 18.0233L12.5001 21.7878ZM21.3356 22.5946L21.3036 22.6327C21.2486 22.6884 21.1377 22.772 20.9818 22.8605C20.5814 23.0914 19.8944 23.3608 18.9897 23.6047C18.8134 22.688 18.7353 21.7433 18.7356 20.8997C18.7353 20.3245 18.7686 19.7965 18.825 19.3578C18.8488 19.1678 18.8782 18.9977 18.9097 18.8449C19.4 19.0384 19.878 19.2868 20.2718 19.6247C20.5895 19.8969 20.8556 20.2234 21.0465 20.6348C21.2368 21.0463 21.3539 21.546 21.3539 22.1729C21.3538 22.307 21.3471 22.4483 21.3356 22.5946Z" fill="#888888"/>
<path d="M10.7963 17.3231V19.441L12.5124 18.6741L14.2286 19.441V17.3231L12.5124 18.0897L10.7963 17.3231Z" fill="#888888"/>
</g>
<defs>
<clipPath id="clip0_1_336">
<rect width="25" height="25" fill="white" transform="translate(0 0.121094)"/>
</clipPath>
</defs>
</svg>
